<svg xmlns="http://www.w3.org/2000/svg" width="128" height="128" viewBox="0 0 128 128">
  <title>WALLET</title>
  <g fill="none" stroke="black" stroke-width="3">
    <path d="M121.693,60.752h-3.586V17.435a6.758,6.758,0,0,0-6.75-6.75H17.6A13.059,13.059,0,0,0,4.557,23.729v80.545A13.055,13.055,0,0,0,17.6,117.315h93.76a6.758,6.758,0,0,0,6.75-6.75V89.837h3.586a1.749,1.749,0,0,0,1.75-1.75V62.5A1.749,1.749,0,0,0,121.693,60.752ZM17.6,14.185h93.755a3.254,3.254,0,0,1,3.25,3.25V34.108a6.707,6.707,0,0,0-3.25-.835H17.6a9.544,9.544,0,1,1,0-19.088ZM8.057,104.274V32.591A12.993,12.993,0,0,0,17.6,36.773h9.642A60.029,60.029,0,0,1,40.8,75.294a60.025,60.025,0,0,1-13.559,38.521H17.6A9.551,9.551,0,0,1,8.057,104.274Zm106.55,6.291a3.254,3.254,0,0,1-3.25,3.25H31.775A63.7,63.7,0,0,0,44.3,75.294,63.7,63.7,0,0,0,31.775,36.773h79.582a3.254,3.254,0,0,1,3.25,3.25V60.752H90.077a14.543,14.543,0,1,0,0,29.085h24.53Zm5.336-24.228H90.077a11.043,11.043,0,1,1,0-22.085h29.866Z"/>
    <path d="M90.077,68.733a6.561,6.561,0,1,0,6.561,6.561A6.569,6.569,0,0,0,90.077,68.733Zm0,9.621a3.061,3.061,0,1,1,3.061-3.06A3.064,3.064,0,0,1,90.077,78.354Z"/>
  </g>
</svg>
